<svg version="1.1" xmlns="http://www.w3.org/2000/svg" xmlns:xlink="http://www.w3.org/1999/xlink" width="216px" height="144px">

<style>
	.letters {
		fill: black
	}
	.jack, .jack.arm.alt {
		fill: black
	}
</style>

<path class="jack arm alt" fill="#CA2327" d="M84.084,71.437c8.982-14.522,20.72-30.61,35.813-48.273c-15.093,17.663-28.844,31.394-41.255,41.905 c0.707,1.255,1.436,2.525,2.191,3.804C81.924,69.754,83.008,70.609,84.084,71.437z"/>
<path class="jack arm alt" fill="#CA2327" d="M70.785,74.263c-8.982,14.52-20.72,30.609-35.813,48.267c15.093-17.657,28.844-31.393,41.255-41.904 c-0.71-1.253-1.441-2.521-2.191-3.799C72.939,75.946,71.855,75.09,70.785,74.263z"/>
<path class="jack" d="M70.785,71.437c-0.617,0.479-1.234,0.95-1.847,1.413c0.613,0.463,1.23,0.933,1.847,1.413l0.868-1.413L70.785,71.437z"/>
<path class="jack" d="M76.227,80.625c0.41,0.728,0.812,1.445,1.205,2.164c0.398-0.719,0.799-1.437,1.21-2.164l-1.21-1.015L76.227,80.625z"/>
<path class="jack" d="M77.432,66.083l1.21-1.015c-0.411-0.723-0.812-1.445-1.21-2.159c-0.394,0.714-0.795,1.436-1.205,2.159 C76.629,65.409,77.034,65.75,77.432,66.083z"/>
<path class="jack" d="M78.642,80.625c12.412,10.512,26.162,24.247,41.255,41.904c-15.093-17.657-26.831-33.747-35.813-48.267 c-1.076,0.827-2.16,1.684-3.251,2.563C80.078,78.104,79.349,79.372,78.642,80.625z"/>
<path class="jack" d="M84.084,74.263c0.617-0.48,1.235-0.95,1.841-1.413c-0.606-0.463-1.224-0.934-1.841-1.413l-0.868,1.413L84.084,74.263z"/>
<polygon class="letters" points="15.028,89.336 15.028,67.748 11.058,67.748 11.058,63.43 24.042,63.43 24.042,67.748 20.024,67.748 20.024,89.336"/>
<path class="letters" d="M26.579,89.336V63.43h5.023l3.445,12.35c0.179,0.604,0.452,1.685,0.812,3.235c0.366,1.55,0.796,3.481,1.296,5.786h0.328
	c-0.405-3.144-0.725-5.924-0.957-8.344c-0.229-2.419-0.346-4.217-0.346-5.397v-7.63h4.509v25.906h-4.89l-3.348-11.539
	c-0.045-0.161-0.122-0.438-0.232-0.829c-0.942-3.211-1.61-6.014-2.013-8.409h-0.295c0.397,3.113,0.701,5.898,0.909,8.345
	c0.211,2.451,0.316,4.493,0.316,6.123v6.31H26.579z"/>
<polygon class="letters" points="47.156,89.336 47.156,67.748 43.186,67.748 43.186,63.43 56.169,63.43 56.169,67.748 52.155,67.748 52.155,89.336"/>
<path class="letters" d="M107.853,89.336c3.217,0,5.581-1.083,7.071-3.259c1.493-2.176,2.246-5.606,2.246-10.298c0-4.403-0.757-7.562-2.268-9.477 c-1.516-1.914-4.01-2.873-7.502-2.873h-5.028v25.906H107.853z M107.368,67.402h0.2c1.635,0,2.788,0.654,3.453,1.957 c0.67,1.303,1.002,3.64,1.002,7.008c0,3.305-0.339,5.619-1.027,6.95c-0.686,1.331-1.852,1.997-3.494,1.997h-0.134V67.402z"/>
<path class="letters" d="M132.743,83.057c-0.11,0.975-0.354,1.716-0.719,2.227c-0.369,0.513-0.84,0.765-1.409,0.765 c-0.792,0-1.367-0.405-1.725-1.22c-0.355-0.818-0.534-2.138-0.534-3.96v-0.267h9.016v-1.944c0-2.922-0.565-5.132-1.698-6.615 c-1.133-1.491-2.805-2.232-5.021-2.232c-2.344,0-4.058,0.814-5.159,2.451c-1.095,1.636-1.646,4.192-1.646,7.675 c0,3.382,0.547,5.866,1.638,7.456c1.093,1.59,2.804,2.385,5.136,2.385c1.698,0,3.075-0.478,4.135-1.443 c1.062-0.962,1.795-2.387,2.205-4.265L132.743,83.057z M128.939,74.37c0.37-0.719,0.918-1.078,1.644-1.078 c0.804,0,1.396,0.345,1.774,1.039c0.383,0.689,0.581,1.784,0.604,3.279h-4.605C128.382,76.17,128.574,75.09,128.939,74.37z"/>
<path class="letters" d="M144.757,89.286V70.199h4.403v3.023c0.537-1.145,1.189-1.996,1.946-2.564c0.755-0.569,1.638-0.848,2.644-0.848 c1.349,0,2.297,0.41,2.857,1.238c0.559,0.826,0.838,2.333,0.838,4.525v13.714h-4.657V77.297c0-1.392-0.118-2.332-0.357-2.825 c-0.235-0.495-0.655-0.738-1.266-0.738c-0.586,0-1.022,0.289-1.318,0.868c-0.291,0.58-0.44,1.445-0.44,2.598v12.087H144.757z"/>
<path class="letters" d="M171.127,82.667c0,1.176,0.105,1.929,0.32,2.25c0.209,0.331,0.615,0.494,1.221,0.494c0.053,0,0.143-0.006,0.255-0.017 c0.119-0.009,0.208-0.016,0.261-0.016v3.957c-0.598,0.067-1.124,0.117-1.587,0.149c-0.46,0.032-0.829,0.048-1.107,0.048 c-1.515,0-2.562-0.364-3.146-1.1c-0.581-0.73-0.871-2.239-0.871-4.521V73.733h-1.862v-3.535h1.862v-4.071h4.654v4.071h2.057v3.535 h-2.057V82.667z"/>
<path class="letters" d="M193.163,89.336V70.199h-4.649v3.566c-0.4-1.362-0.92-2.364-1.563-3.002c-0.646-0.637-1.457-0.953-2.439-0.953 c-1.486,0-2.598,0.812-3.329,2.444c-0.733,1.629-1.1,4.107-1.1,7.434c0,3.195,0.394,5.633,1.183,7.317 c0.785,1.686,1.932,2.528,3.428,2.528c0.86,0,1.607-0.323,2.252-0.969c0.635-0.646,1.157-1.606,1.569-2.885v3.656H193.163z M188.26,83.94c-0.332,0.95-0.839,1.422-1.521,1.422c-0.653,0-1.134-0.455-1.442-1.364c-0.308-0.905-0.463-2.309-0.463-4.205 c0-2.049,0.155-3.523,0.456-4.418c0.304-0.897,0.796-1.349,1.481-1.349c0.649,0,1.144,0.473,1.479,1.426 c0.34,0.944,0.506,2.319,0.506,4.126C188.757,81.538,188.591,82.995,188.26,83.94z"/>
<rect class="letters" x="201.669" y="63.43" width="4.607" height="25.906"/>
<ellipse class="jack" cx="34.768" cy="22.74" rx="5.986" ry="5.996"/>
<ellipse class="jack" cx="120.023" cy="121.547" rx="5.987" ry="5.996"/>
<ellipse class="jack" cx="34.768" cy="121.547" rx="5.986" ry="5.996"/>
<ellipse class="jack" cx="120.023" cy="22.74" rx="5.987" ry="5.996"/>
<path class="jack arm" d="M76.243,65.123C63.833,54.61,50.081,40.875,34.988,23.217c15.093,17.658,26.831,33.751,35.816,48.272 c1.072-0.832,2.155-1.685,3.247-2.564C74.806,67.644,75.538,66.376,76.243,65.123z"/>
</svg>
